<?xml version="1.0" standalone="no"?>
<!DOCTYPE svg PUBLIC "-//W3C//DTD SVG 20010904//EN"
 "http://www.w3.org/TR/2001/REC-SVG-20010904/DTD/svg10.dtd">
<svg version="1.0" xmlns="http://www.w3.org/2000/svg"
 width="512.000000pt" height="512.000000pt" viewBox="0 0 512.000000 512.000000"
 preserveAspectRatio="xMidYMid meet">

<g transform="translate(0.000000,512.000000) scale(0.100000,-0.100000)"
fill="#000000" stroke="none">
<path d="M505 5101 c-46 -21 -72 -49 -137 -141 -54 -77 -150 -171 -233 -227
-73 -50 -99 -77 -120 -125 -20 -49 -19 -104 4 -153 21 -46 49 -73 142 -138 71
-49 209 -190 209 -213 0 -7 -18 -43 -40 -79 -147 -240 -251 -523 -301 -816
-30 -179 -33 -525 -6 -694 51 -311 154 -598 302 -842 25 -40 45 -80 45 -87 0
-23 -138 -164 -209 -213 -124 -87 -161 -137 -161 -218 0 -81 37 -131 160 -217
77 -54 171 -150 227 -233 50 -73 77 -99 125 -120 49 -20 104 -19 153 4 46 21
73 49 137 141 51 73 190 210 213 210 8 0 45 -19 82 -42 108 -66 317 -163 450
-208 251 -85 550 -128 808 -117 241 11 285 23 285 82 0 14 2 25 5 25 3 0 46 9
97 20 l92 21 21 -28 c17 -20 31 -27 56 -26 40 1 196 58 328 119 l93 44 49 -43
c96 -84 233 -149 346 -163 47 -6 53 -11 313 -269 288 -285 319 -309 457 -341
124 -29 276 -3 384 66 53 35 134 117 167 171 62 101 86 255 58 372 -32 138
-56 169 -341 457 -258 260 -263 266 -269 313 -14 113 -79 250 -164 347 l-43
49 27 53 c78 154 156 389 193 581 104 538 -2 1127 -285 1593 -24 40 -44 79
-44 87 0 24 137 164 209 214 124 87 161 137 161 218 0 81 -37 131 -160 217
-77 54 -171 150 -227 233 -50 73 -77 99 -125 120 -49 20 -104 19 -153 -4 -46
-21 -73 -49 -138 -142 -49 -71 -190 -209 -213 -209 -7 0 -43 18 -79 40 -242
148 -553 260 -855 306 -157 25 -491 25 -645 1 -309 -48 -608 -154 -852 -302
-40 -25 -80 -45 -87 -45 -23 0 -164 138 -213 209 -87 124 -137 161 -218 161
-22 0 -58 -9 -80 -19z m99 -137 c9 -3 36 -36 60 -73 59 -88 181 -210 271 -271
109 -74 110 -95 4 -166 -91 -61 -215 -185 -273 -273 -70 -105 -92 -105 -162 0
-59 90 -183 214 -273 273 -105 70 -105 92 1 162 89 59 213 184 272 273 52 78
66 88 100 75z m3387 -6 c9 -7 37 -43 62 -79 62 -89 178 -203 264 -261 107 -72
108 -94 1 -165 -90 -61 -202 -171 -268 -265 -28 -40 -58 -77 -66 -81 -27 -15
-54 4 -101 75 -61 92 -183 213 -272 272 -105 70 -105 92 0 162 88 58 212 182
272 273 56 82 76 95 108 69z m-1458 -613 c316 -56 591 -198 817 -425 227 -226
368 -498 427 -825 23 -121 23 -379 0 -500 -60 -327 -200 -598 -430 -829 l-89
-88 -39 67 c-53 91 -126 181 -211 259 l-70 66 63 68 c66 69 124 150 155 215
17 36 19 37 75 37 236 0 390 250 285 460 -20 40 -30 80 -37 148 -13 127 -50
265 -103 386 -24 55 -49 128 -55 161 -6 33 -29 98 -52 145 -34 70 -58 101
-133 175 -146 143 -305 225 -551 283 -98 23 -131 26 -305 26 -202 1 -347 -17
-397 -49 -30 -20 -39 -69 -18 -101 24 -38 53 -44 126 -28 125 26 275 35 402
24 213 -20 383 -76 533 -176 143 -95 220 -205 248 -355 8 -42 30 -108 49 -145
39 -78 82 -205 92 -277 l7 -47 -58 6 c-89 10 -138 66 -177 204 -20 69 -73 132
-129 155 -91 37 -226 18 -333 -47 -76 -47 -167 -77 -269 -90 -79 -10 -109 -9
-192 4 -84 14 -117 26 -220 78 -143 72 -217 89 -306 71 -97 -21 -162 -83 -188
-181 -15 -55 -51 -126 -83 -161 -18 -20 -36 -27 -80 -32 -66 -6 -64 -9 -42 86
19 82 37 133 85 237 21 47 43 113 49 148 20 127 86 226 218 328 64 50 79 66
81 92 7 69 -49 104 -115 71 -100 -49 -239 -195 -289 -304 -24 -52 -54 -156
-54 -187 0 -10 -13 -44 -29 -76 -64 -127 -103 -264 -121 -422 -7 -66 -19 -111
-38 -150 -23 -47 -27 -67 -27 -145 0 -81 3 -95 29 -143 59 -106 148 -163 268
-170 l76 -4 19 -41 c25 -57 94 -150 161 -219 l55 -57 -84 -79 c-89 -84 -153
-165 -205 -258 l-31 -55 -86 85 c-260 257 -414 587 -448 954 -30 333 57 677
244 960 257 388 651 628 1121 682 95 12 301 4 409 -15z m-681 -1143 c152 -80
274 -112 424 -112 143 0 306 43 413 108 61 38 105 52 158 52 64 0 79 -12 98
-77 24 -81 66 -159 119 -221 56 -65 60 -81 53 -191 -8 -119 -29 -198 -87 -316
-108 -221 -283 -368 -525 -441 -79 -24 -107 -27 -230 -27 -123 0 -151 3 -228
27 -244 73 -423 225 -533 452 -52 106 -84 240 -84 352 0 80 7 99 55 153 46 52
80 113 105 192 26 80 46 97 117 97 44 0 69 -8 145 -48z m-572 -409 c0 -43 8
-117 18 -165 20 -97 19 -99 -41 -74 -42 17 -93 76 -102 116 -14 66 19 145 77
180 18 11 36 20 41 20 4 0 7 -35 7 -77z m2038 57 c57 -35 90 -109 77 -176 -11
-59 -93 -134 -148 -134 -12 0 -12 8 0 58 7 31 16 105 20 165 3 59 9 107 12
107 3 0 21 -9 39 -20z m-1518 -907 c45 -25 50 -31 50 -63 0 -53 27 -146 56
-196 90 -153 284 -241 453 -205 189 40 339 217 341 401 0 32 5 38 54 64 l54
29 66 -52 c76 -61 180 -186 227 -274 l32 -60 -24 -18 c-35 -26 -203 -113 -279
-143 -154 -63 -378 -105 -552 -106 -175 0 -403 44 -568 110 -66 26 -236 114
-269 139 l-23 18 26 50 c42 83 143 210 219 273 39 33 74 60 79 60 4 0 30 -12
58 -27z m430 -119 c74 -4 134 -1 204 10 54 9 101 14 104 11 15 -15 -24 -93
-72 -141 -79 -78 -167 -100 -273 -69 -84 25 -160 106 -187 201 -6 20 -5 20 56
7 35 -7 110 -16 168 -19z m2065 -294 c38 -76 55 -148 55 -240 0 -239 -148
-436 -380 -504 -72 -22 -208 -22 -280 0 -69 20 -134 53 -183 92 l-37 30 77 52
c233 157 457 380 608 606 l57 84 30 -37 c17 -21 40 -58 53 -83z m-3691 54 c9
-3 36 -36 60 -73 59 -88 181 -210 272 -272 40 -27 76 -54 79 -59 16 -27 -8
-60 -75 -105 -88 -59 -204 -173 -270 -267 -28 -40 -58 -77 -66 -81 -27 -15
-53 4 -99 73 -59 88 -173 204 -267 270 -40 28 -77 58 -81 66 -15 27 4 53 72
98 88 59 215 186 275 275 52 78 66 88 100 75z"/>
<path d="M1725 2835 c-22 -21 -25 -33 -25 -97 0 -82 14 -112 55 -122 29 -7 79
15 89 39 3 9 6 48 6 86 0 61 -3 73 -25 94 -13 14 -36 25 -50 25 -14 0 -37 -11
-50 -25z"/>
<path d="M2725 2835 c-22 -21 -25 -33 -25 -95 0 -83 8 -103 49 -119 24 -10 34
-10 59 3 38 19 42 32 42 117 0 61 -3 73 -25 94 -13 14 -36 25 -50 25 -14 0
-37 -11 -50 -25z"/>
<path d="M2113 2760 c-26 -11 -43 -40 -43 -73 0 -63 104 -127 205 -127 138 0
249 106 188 178 -30 36 -63 37 -113 3 -57 -39 -93 -39 -149 -1 -47 32 -54 34
-88 20z"/>
</g>
</svg>
