<?xml version="1.0" standalone="no"?>
<!DOCTYPE svg PUBLIC "-//W3C//DTD SVG 20010904//EN"
 "http://www.w3.org/TR/2001/REC-SVG-20010904/DTD/svg10.dtd">
<svg version="1.0" xmlns="http://www.w3.org/2000/svg"
 width="512.000000pt" height="512.000000pt" viewBox="0 0 512.000000 512.000000"
 preserveAspectRatio="xMidYMid meet">

<g transform="translate(0.000000,512.000000) scale(0.100000,-0.100000)"
fill="#000000" stroke="none">
<path d="M316 5109 c-113 -27 -224 -121 -279 -237 l-32 -67 -3 -422 -3 -423
330 0 331 0 0 -306 0 -306 -172 -220 c-200 -254 -225 -290 -238 -338 -5 -19
-25 -162 -45 -316 l-35 -282 0 -423 c1 -419 1 -427 34 -681 l32 -258 -118 0
-118 0 0 -415 0 -415 580 0 580 0 0 205 0 205 1534 0 c985 0 1553 4 1587 10
128 24 252 119 307 237 27 58 27 59 30 321 l3 262 -330 0 -331 0 0 431 c0 405
1 430 18 425 96 -30 305 -36 420 -12 146 31 302 109 412 205 l44 39 -53 61
c-29 33 -55 61 -57 61 -2 0 -32 -23 -66 -51 -154 -124 -367 -185 -558 -159
-252 35 -464 187 -575 413 -86 177 -97 379 -30 570 36 105 82 173 181 273 78
79 104 98 185 137 116 56 209 77 337 77 345 0 642 -242 717 -584 36 -164 6
-365 -75 -510 l-31 -54 72 -42 c82 -49 72 -54 130 67 51 107 79 214 86 338 10
174 -35 357 -125 510 -55 93 -197 242 -287 300 -187 122 -435 171 -652 130
-43 -8 -81 -15 -85 -15 -4 0 -9 217 -10 483 l-3 482 -33 67 c-57 115 -148 192
-267 222 -52 14 -245 16 -1680 15 -936 -1 -1636 -5 -1659 -10z m175 -171 c51
-15 114 -69 142 -122 21 -40 22 -53 25 -363 l3 -323 -245 0 -246 0 0 315 c0
261 3 322 15 352 51 122 177 180 306 141z m3153 -2 c46 -19 104 -72 129 -120
22 -40 22 -48 25 -538 l3 -497 -40 -20 c-21 -11 -72 -47 -113 -79 -160 -128
-271 -301 -320 -499 -27 -111 -29 -304 -5 -405 58 -237 192 -430 395 -565 l82
-55 0 -459 0 -459 -1240 0 -1240 0 0 -232 c0 -213 -2 -237 -21 -278 -23 -51
-61 -95 -101 -116 -15 -8 -29 -14 -32 -14 -3 0 -7 51 -8 113 l-3 112 -82 3
-83 3 0 187 0 187 310 310 c347 347 355 358 348 469 -5 70 -26 120 -70 165
-71 72 -174 97 -269 66 -47 -16 -74 -38 -216 -178 l-162 -160 -51 103 -50 103
0 296 c0 269 2 300 19 338 11 23 98 151 193 286 189 265 205 295 195 395 -8
99 -67 181 -154 217 -70 29 -185 14 -235 -32 -17 -15 -18 7 -18 553 0 343 -4
594 -10 633 -6 35 -24 90 -41 122 l-29 59 1430 0 c1191 0 1436 -2 1464 -14z
m-2615 -1481 c34 -17 41 -33 41 -88 0 -39 -15 -63 -168 -277 -92 -129 -177
-251 -189 -271 -46 -74 -53 -133 -53 -439 0 -159 5 -305 11 -330 6 -25 30 -87
54 -137 32 -67 40 -93 29 -93 -11 0 -14 -18 -14 -85 l0 -85 102 0 102 0 206
205 c184 183 210 205 239 205 45 0 70 -16 87 -56 12 -29 12 -38 0 -66 -8 -19
-154 -172 -330 -348 l-316 -315 0 -222 0 -223 -215 0 c-165 0 -215 3 -215 13
0 6 -16 136 -35 287 -34 271 -35 280 -35 650 1 375 1 375 39 672 26 206 43
304 54 322 18 27 483 623 522 669 26 31 44 33 84 12z m3429 -2537 c-3 -135 -6
-159 -27 -201 -12 -26 -39 -60 -59 -77 -77 -64 15 -60 -1544 -60 l-1419 0 25
43 c42 71 56 147 56 304 l0 143 1486 0 1486 0 -4 -152z m-3468 -503 l0 -245
-410 0 -410 0 0 245 0 245 410 0 410 0 0 -245z"/>
<path d="M1070 4255 l0 -535 1240 0 1240 0 0 535 0 535 -1240 0 -1240 0 0
-535z m2310 -5 l0 -370 -1070 0 -1070 0 0 370 0 370 1070 0 1070 0 0 -370z"/>
<path d="M1650 3140 l0 -80 250 0 250 0 0 80 0 80 -250 0 -250 0 0 -80z"/>
<path d="M2480 3140 l0 -80 245 0 245 0 0 80 0 80 -245 0 -245 0 0 -80z"/>
<path d="M1652 2808 l3 -83 245 0 245 0 3 83 3 82 -251 0 -251 0 3 -82z"/>
<path d="M2480 2805 l0 -85 245 0 245 0 0 85 0 85 -245 0 -245 0 0 -85z"/>
<path d="M1490 2475 l0 -85 823 2 822 3 3 83 3 82 -826 0 -825 0 0 -85z"/>
<path d="M2230 1815 l0 -85 660 0 660 0 0 85 0 85 -660 0 -660 0 0 -85z"/>
<path d="M2230 1485 l0 -85 248 2 247 3 3 83 3 82 -251 0 -250 0 0 -85z"/>
<path d="M3060 1485 l0 -85 245 0 245 0 0 85 0 85 -245 0 -245 0 0 -85z"/>
<path d="M4130 3461 c0 -82 -2 -90 -21 -96 -32 -11 -98 -74 -119 -116 -28 -53
-34 -110 -20 -168 25 -105 107 -175 222 -191 45 -7 68 -15 81 -31 40 -49 4
-129 -59 -129 -37 0 -84 36 -84 65 0 12 -15 15 -85 15 -93 0 -92 1 -74 -64 16
-59 57 -113 110 -148 l49 -31 0 -89 0 -89 83 3 82 3 3 91 c2 83 5 92 25 101
106 49 164 190 123 304 -31 88 -119 154 -218 166 -57 7 -98 37 -98 72 0 89
113 122 150 43 l15 -32 83 0 c93 0 95 2 68 78 -21 57 -50 94 -102 127 l-44 28
0 88 0 89 -85 0 -85 0 0 -89z"/>
<path d="M3630 2975 l0 -85 85 0 85 0 0 85 0 85 -85 0 -85 0 0 -85z"/>
<path d="M4620 2975 l0 -85 85 0 85 0 0 85 0 85 -85 0 -85 0 0 -85z"/>
</g>
</svg>
