<?xml version="1.0" standalone="no"?>
<!DOCTYPE svg PUBLIC "-//W3C//DTD SVG 20010904//EN"
 "http://www.w3.org/TR/2001/REC-SVG-20010904/DTD/svg10.dtd">
<svg version="1.0" xmlns="http://www.w3.org/2000/svg"
 width="512.000000pt" height="512.000000pt" viewBox="0 0 512.000000 512.000000"
 preserveAspectRatio="xMidYMid meet">

<g transform="translate(0.000000,512.000000) scale(0.100000,-0.100000)"
fill="#000000" stroke="none">
<path d="M3440 4947 c-49 -16 -133 -102 -148 -153 -9 -30 -12 -181 -12 -554 0
-373 3 -524 12 -554 16 -55 99 -138 154 -154 59 -17 1049 -17 1108 0 55 16
138 99 154 154 17 58 17 1049 0 1106 -6 22 -31 62 -55 88 -73 82 -60 80 -657
79 -349 -1 -533 -5 -556 -12z m240 -267 l0 -120 -120 0 -120 0 0 91 c0 87 1
92 29 120 28 28 33 29 120 29 l91 0 0 -120z m851 91 c28 -28 29 -33 29 -120
l0 -91 -120 0 -120 0 0 120 0 120 91 0 c87 0 92 -1 120 -29z m-849 -459 c3
-78 6 -93 30 -124 34 -45 102 -73 152 -64 19 4 58 22 86 41 l50 34 50 -34 c28
-19 67 -37 86 -41 50 -9 118 19 152 64 24 31 27 46 30 124 l4 88 119 0 119 0
0 -325 c0 -343 -3 -364 -47 -384 -34 -15 -992 -15 -1026 0 -44 20 -47 41 -47
384 l0 325 119 0 119 0 4 -88z"/>
<path d="M1673 4465 c-202 -37 -365 -124 -513 -274 -129 -130 -212 -278 -257
-457 -24 -95 -24 -333 0 -428 45 -179 128 -327 257 -457 129 -131 264 -210
449 -262 74 -21 96 -21 936 -27 840 -5 861 -6 922 -26 203 -70 363 -230 426
-429 31 -99 31 -271 0 -370 -62 -196 -225 -360 -423 -428 -64 -21 -79 -22
-695 -27 -440 -3 -638 -8 -655 -16 -64 -30 -119 -115 -120 -185 0 -21 12 -60
28 -90 22 -43 38 -59 81 -81 l53 -28 597 0 c641 0 701 4 846 53 82 28 202 87
265 130 64 45 194 171 247 241 91 122 162 293 188 451 78 477 -190 950 -640
1130 -36 14 -101 36 -143 48 -75 21 -96 21 -937 27 l-860 5 -66 26 c-151 59
-255 151 -320 285 -150 309 0 657 336 780 46 17 101 19 681 24 l630 5 41 27
c62 41 88 90 88 168 0 78 -26 127 -88 168 l-41 27 -620 2 c-476 1 -638 -2
-693 -12z m1281 -167 c8 -13 8 -23 0 -35 -10 -17 -55 -18 -630 -23 -615 -5
-619 -6 -689 -29 -129 -43 -203 -89 -300 -186 -100 -99 -146 -175 -187 -305
-33 -108 -33 -292 0 -400 41 -130 87 -206 187 -305 97 -98 171 -143 300 -186
l70 -24 860 -5 c828 -6 863 -7 930 -27 335 -98 551 -318 642 -653 13 -48 17
-102 17 -205 -1 -123 -4 -151 -28 -230 -92 -305 -303 -516 -611 -612 l-90 -28
-622 -3 c-618 -3 -622 -3 -633 18 -7 14 -8 26 0 40 10 18 28 19 633 23 695 4
663 1 823 77 160 77 297 213 374 374 60 126 74 190 74 346 0 156 -14 220 -74
346 -77 161 -214 297 -374 374 -162 78 -101 73 -1061 80 -936 6 -885 3 -1035
64 -136 55 -294 192 -374 324 -255 420 -61 983 399 1158 134 50 164 52 799 51
549 -2 590 -3 600 -19z"/>
<path d="M934 1950 c-423 -111 -651 -583 -470 -975 18 -39 119 -191 226 -340
107 -149 220 -307 253 -353 67 -94 89 -112 145 -119 80 -11 91 0 366 376 139
190 266 371 281 401 94 185 106 378 36 569 -80 218 -263 384 -489 442 -99 25
-250 25 -348 -1z m296 -468 c128 -63 174 -223 103 -354 -46 -85 -127 -131
-228 -131 -144 1 -255 113 -255 258 0 100 50 183 135 228 83 43 156 43 245 -1z"/>
</g>
</svg>
